<mxfile host="app.diagrams.net" agent="Mozilla/5.0 (Windows NT 10.0; Win64; x64) AppleWebKit/537.36 (KHTML, like Gecko) Chrome/131.0.0.0 Safari/537.36" version="26.0.2">
  <diagram name="Page-1" id="yXUNx5onpY6AG_J7Rb1d">
    <mxGraphModel dx="1444" dy="764" grid="1" gridSize="10" guides="1" tooltips="1" connect="1" arrows="1" fold="1" page="1" pageScale="1" pageWidth="850" pageHeight="1100" background="none" math="0" shadow="0">
      <root>
        <mxCell id="0" />
        <mxCell id="1" parent="0" />
        <mxCell id="04KN_f6TEFB4FLLlbZ4H-1" value="Instagram ui/interface:&lt;br&gt;&lt;div&gt;login/signin&lt;/div&gt;&lt;div&gt;feed&lt;/div&gt;&lt;div&gt;like/comment&lt;/div&gt;" style="rounded=0;whiteSpace=wrap;html=1;" vertex="1" parent="1">
          <mxGeometry x="170" y="84" width="90" height="150" as="geometry" />
        </mxCell>
        <mxCell id="04KN_f6TEFB4FLLlbZ4H-3" value="UI/INTERFACE" style="text;html=1;align=center;verticalAlign=middle;resizable=0;points=[];autosize=1;strokeColor=none;fillColor=none;" vertex="1" parent="1">
          <mxGeometry x="160" y="84" width="110" height="30" as="geometry" />
        </mxCell>
        <mxCell id="04KN_f6TEFB4FLLlbZ4H-4" value="API GATEWAY" style="rounded=1;whiteSpace=wrap;html=1;" vertex="1" parent="1">
          <mxGeometry x="395" y="124" width="120" height="65" as="geometry" />
        </mxCell>
        <mxCell id="04KN_f6TEFB4FLLlbZ4H-7" value="" style="endArrow=classic;html=1;rounded=0;entryX=0;entryY=0.25;entryDx=0;entryDy=0;" edge="1" parent="1" target="04KN_f6TEFB4FLLlbZ4H-4">
          <mxGeometry width="50" height="50" relative="1" as="geometry">
            <mxPoint x="263.44" y="140.81" as="sourcePoint" />
            <mxPoint x="360.00000000000017" y="30.00499999999994" as="targetPoint" />
          </mxGeometry>
        </mxCell>
        <mxCell id="04KN_f6TEFB4FLLlbZ4H-8" value="" style="endArrow=classic;html=1;rounded=0;exitX=0;exitY=0.5;exitDx=0;exitDy=0;" edge="1" parent="1" source="04KN_f6TEFB4FLLlbZ4H-4">
          <mxGeometry width="50" height="50" relative="1" as="geometry">
            <mxPoint x="400" y="270" as="sourcePoint" />
            <mxPoint x="260" y="159" as="targetPoint" />
          </mxGeometry>
        </mxCell>
        <mxCell id="04KN_f6TEFB4FLLlbZ4H-9" value="request" style="text;html=1;align=center;verticalAlign=middle;resizable=0;points=[];autosize=1;strokeColor=none;fillColor=none;" vertex="1" parent="1">
          <mxGeometry x="290" y="114" width="60" height="30" as="geometry" />
        </mxCell>
        <mxCell id="04KN_f6TEFB4FLLlbZ4H-10" value="response" style="text;html=1;align=center;verticalAlign=middle;resizable=0;points=[];autosize=1;strokeColor=none;fillColor=none;" vertex="1" parent="1">
          <mxGeometry x="285" y="159" width="70" height="30" as="geometry" />
        </mxCell>
        <mxCell id="04KN_f6TEFB4FLLlbZ4H-12" value="API" style="rounded=0;whiteSpace=wrap;html=1;direction=south;" vertex="1" parent="1">
          <mxGeometry x="640" y="57" width="60" height="177" as="geometry" />
        </mxCell>
        <mxCell id="04KN_f6TEFB4FLLlbZ4H-13" value="" style="endArrow=classic;html=1;rounded=0;entryX=0.431;entryY=0.966;entryDx=0;entryDy=0;exitX=0.993;exitY=0.163;exitDx=0;exitDy=0;exitPerimeter=0;entryPerimeter=0;" edge="1" parent="1" source="04KN_f6TEFB4FLLlbZ4H-4" target="04KN_f6TEFB4FLLlbZ4H-12">
          <mxGeometry relative="1" as="geometry">
            <mxPoint x="500" y="310" as="sourcePoint" />
            <mxPoint x="600" y="310" as="targetPoint" />
            <Array as="points" />
          </mxGeometry>
        </mxCell>
        <mxCell id="04KN_f6TEFB4FLLlbZ4H-70" value="post/upload" style="edgeLabel;html=1;align=center;verticalAlign=middle;resizable=0;points=[];" vertex="1" connectable="0" parent="04KN_f6TEFB4FLLlbZ4H-13">
          <mxGeometry x="-0.2527" y="5" relative="1" as="geometry">
            <mxPoint as="offset" />
          </mxGeometry>
        </mxCell>
        <mxCell id="04KN_f6TEFB4FLLlbZ4H-15" value="" style="endArrow=classic;html=1;rounded=0;exitX=0.984;exitY=0.59;exitDx=0;exitDy=0;exitPerimeter=0;entryX=0.597;entryY=0.974;entryDx=0;entryDy=0;entryPerimeter=0;" edge="1" parent="1" source="04KN_f6TEFB4FLLlbZ4H-4" target="04KN_f6TEFB4FLLlbZ4H-12">
          <mxGeometry width="50" height="50" relative="1" as="geometry">
            <mxPoint x="524" y="271" as="sourcePoint" />
            <mxPoint x="620" y="270" as="targetPoint" />
          </mxGeometry>
        </mxCell>
        <mxCell id="04KN_f6TEFB4FLLlbZ4H-69" value="like/comment" style="edgeLabel;html=1;align=center;verticalAlign=middle;resizable=0;points=[];" vertex="1" connectable="0" parent="04KN_f6TEFB4FLLlbZ4H-15">
          <mxGeometry x="0.0385" y="-1" relative="1" as="geometry">
            <mxPoint as="offset" />
          </mxGeometry>
        </mxCell>
        <mxCell id="04KN_f6TEFB4FLLlbZ4H-16" value="" style="endArrow=classic;html=1;rounded=0;exitX=1;exitY=1;exitDx=0;exitDy=0;entryX=0.744;entryY=1.081;entryDx=0;entryDy=0;entryPerimeter=0;" edge="1" parent="1" source="04KN_f6TEFB4FLLlbZ4H-4" target="04KN_f6TEFB4FLLlbZ4H-12">
          <mxGeometry width="50" height="50" relative="1" as="geometry">
            <mxPoint x="520" y="330" as="sourcePoint" />
            <mxPoint x="570" y="280" as="targetPoint" />
          </mxGeometry>
        </mxCell>
        <mxCell id="04KN_f6TEFB4FLLlbZ4H-68" value="news feed" style="edgeLabel;html=1;align=center;verticalAlign=middle;resizable=0;points=[];" vertex="1" connectable="0" parent="04KN_f6TEFB4FLLlbZ4H-16">
          <mxGeometry x="-0.1841" y="4" relative="1" as="geometry">
            <mxPoint as="offset" />
          </mxGeometry>
        </mxCell>
        <mxCell id="04KN_f6TEFB4FLLlbZ4H-22" value="API" style="rounded=0;whiteSpace=wrap;html=1;direction=south;" vertex="1" parent="1">
          <mxGeometry x="40" y="670" width="60" height="230" as="geometry" />
        </mxCell>
        <mxCell id="04KN_f6TEFB4FLLlbZ4H-23" value="" style="endArrow=classic;html=1;rounded=0;" edge="1" parent="1">
          <mxGeometry width="50" height="50" relative="1" as="geometry">
            <mxPoint x="120" y="750" as="sourcePoint" />
            <mxPoint x="220" y="750" as="targetPoint" />
          </mxGeometry>
        </mxCell>
        <mxCell id="04KN_f6TEFB4FLLlbZ4H-24" value="post service&lt;span style=&quot;background-color: transparent; color: light-dark(rgb(0, 0, 0), rgb(255, 255, 255));&quot;&gt;&amp;nbsp;&lt;/span&gt;" style="ellipse;whiteSpace=wrap;html=1;" vertex="1" parent="1">
          <mxGeometry x="230" y="690" width="130" height="105" as="geometry" />
        </mxCell>
        <mxCell id="04KN_f6TEFB4FLLlbZ4H-25" value="" style="endArrow=classic;html=1;rounded=0;exitX=0.5;exitY=1;exitDx=0;exitDy=0;" edge="1" parent="1" source="04KN_f6TEFB4FLLlbZ4H-24">
          <mxGeometry width="50" height="50" relative="1" as="geometry">
            <mxPoint x="294.33" y="805" as="sourcePoint" />
            <mxPoint x="294.33" y="860" as="targetPoint" />
          </mxGeometry>
        </mxCell>
        <mxCell id="04KN_f6TEFB4FLLlbZ4H-26" value="blob for media storage (aws s3)" style="shape=cylinder3;whiteSpace=wrap;html=1;boundedLbl=1;backgroundOutline=1;size=15;" vertex="1" parent="1">
          <mxGeometry x="257.5" y="860" width="75" height="100" as="geometry" />
        </mxCell>
        <mxCell id="04KN_f6TEFB4FLLlbZ4H-27" value="metadata service" style="ellipse;whiteSpace=wrap;html=1;" vertex="1" parent="1">
          <mxGeometry x="580" y="702.5" width="120" height="80" as="geometry" />
        </mxCell>
        <mxCell id="04KN_f6TEFB4FLLlbZ4H-28" value="" style="endArrow=classic;html=1;rounded=0;entryX=0.022;entryY=0.746;entryDx=0;entryDy=0;entryPerimeter=0;exitX=1.012;exitY=0.669;exitDx=0;exitDy=0;exitPerimeter=0;" edge="1" parent="1" source="04KN_f6TEFB4FLLlbZ4H-24" target="04KN_f6TEFB4FLLlbZ4H-27">
          <mxGeometry width="50" height="50" relative="1" as="geometry">
            <mxPoint x="370" y="560" as="sourcePoint" />
            <mxPoint x="420" y="510" as="targetPoint" />
          </mxGeometry>
        </mxCell>
        <mxCell id="04KN_f6TEFB4FLLlbZ4H-29" value="" style="endArrow=classic;html=1;rounded=0;exitX=-0.033;exitY=0.363;exitDx=0;exitDy=0;exitPerimeter=0;entryX=0.976;entryY=0.408;entryDx=0;entryDy=0;entryPerimeter=0;" edge="1" parent="1" source="04KN_f6TEFB4FLLlbZ4H-27" target="04KN_f6TEFB4FLLlbZ4H-24">
          <mxGeometry width="50" height="50" relative="1" as="geometry">
            <mxPoint x="410" y="650" as="sourcePoint" />
            <mxPoint x="460" y="600" as="targetPoint" />
          </mxGeometry>
        </mxCell>
        <mxCell id="04KN_f6TEFB4FLLlbZ4H-30" value="a relational database for metadata, this is where user id, post _id, timestamp and other metadata is stored (aws rds, neondb, mongodb)" style="shape=cylinder3;whiteSpace=wrap;html=1;boundedLbl=1;backgroundOutline=1;size=15;" vertex="1" parent="1">
          <mxGeometry x="567.5" y="870" width="145" height="170" as="geometry" />
        </mxCell>
        <mxCell id="04KN_f6TEFB4FLLlbZ4H-31" value="" style="endArrow=classic;html=1;rounded=0;exitX=0.5;exitY=1;exitDx=0;exitDy=0;entryX=0.5;entryY=0;entryDx=0;entryDy=0;entryPerimeter=0;" edge="1" parent="1" source="04KN_f6TEFB4FLLlbZ4H-27" target="04KN_f6TEFB4FLLlbZ4H-30">
          <mxGeometry width="50" height="50" relative="1" as="geometry">
            <mxPoint x="420" y="770" as="sourcePoint" />
            <mxPoint x="470" y="720" as="targetPoint" />
          </mxGeometry>
        </mxCell>
        <mxCell id="04KN_f6TEFB4FLLlbZ4H-32" value="&lt;font size=&quot;1&quot;&gt;feed service&lt;/font&gt;" style="ellipse;whiteSpace=wrap;html=1;" vertex="1" parent="1">
          <mxGeometry x="260" y="570" width="70" height="50" as="geometry" />
        </mxCell>
        <mxCell id="04KN_f6TEFB4FLLlbZ4H-33" value="" style="endArrow=classic;html=1;rounded=0;exitX=0.5;exitY=1;exitDx=0;exitDy=0;entryX=0.5;entryY=0;entryDx=0;entryDy=0;" edge="1" parent="1" source="04KN_f6TEFB4FLLlbZ4H-32" target="04KN_f6TEFB4FLLlbZ4H-24">
          <mxGeometry width="50" height="50" relative="1" as="geometry">
            <mxPoint x="270" y="780" as="sourcePoint" />
            <mxPoint x="320" y="730" as="targetPoint" />
          </mxGeometry>
        </mxCell>
        <mxCell id="04KN_f6TEFB4FLLlbZ4H-34" value="&lt;font size=&quot;1&quot;&gt;fanout service&lt;/font&gt;" style="ellipse;whiteSpace=wrap;html=1;" vertex="1" parent="1">
          <mxGeometry x="590" y="552" width="100" height="60" as="geometry" />
        </mxCell>
        <mxCell id="04KN_f6TEFB4FLLlbZ4H-35" value="" style="shape=flexArrow;endArrow=classic;html=1;rounded=0;endWidth=31;endSize=7.22;" edge="1" parent="1">
          <mxGeometry width="50" height="50" relative="1" as="geometry">
            <mxPoint x="565" y="500" as="sourcePoint" />
            <mxPoint x="715" y="500" as="targetPoint" />
            <Array as="points">
              <mxPoint x="615" y="500" />
              <mxPoint x="645" y="500" />
            </Array>
          </mxGeometry>
        </mxCell>
        <mxCell id="04KN_f6TEFB4FLLlbZ4H-37" value="&lt;span style=&quot;font-size: x-small;&quot;&gt;messaging queue(kafka)&lt;/span&gt;" style="edgeLabel;html=1;align=center;verticalAlign=middle;resizable=0;points=[];" vertex="1" connectable="0" parent="04KN_f6TEFB4FLLlbZ4H-35">
          <mxGeometry x="-0.2089" y="-2" relative="1" as="geometry">
            <mxPoint x="1" y="-5" as="offset" />
          </mxGeometry>
        </mxCell>
        <mxCell id="04KN_f6TEFB4FLLlbZ4H-39" value="" style="endArrow=classic;html=1;rounded=0;exitX=0.311;exitY=0.085;exitDx=0;exitDy=0;exitPerimeter=0;" edge="1" parent="1">
          <mxGeometry width="50" height="50" relative="1" as="geometry">
            <mxPoint x="639.7299999999999" y="702.5" as="sourcePoint" />
            <mxPoint x="639.91" y="603.2" as="targetPoint" />
          </mxGeometry>
        </mxCell>
        <mxCell id="04KN_f6TEFB4FLLlbZ4H-40" value="" style="endArrow=classic;html=1;rounded=0;entryX=0.667;entryY=0.093;entryDx=0;entryDy=0;entryPerimeter=0;" edge="1" parent="1" target="04KN_f6TEFB4FLLlbZ4H-27">
          <mxGeometry width="50" height="50" relative="1" as="geometry">
            <mxPoint x="660" y="610" as="sourcePoint" />
            <mxPoint x="660" y="700" as="targetPoint" />
          </mxGeometry>
        </mxCell>
        <mxCell id="04KN_f6TEFB4FLLlbZ4H-41" value="" style="endArrow=none;html=1;rounded=0;" edge="1" parent="1">
          <mxGeometry width="50" height="50" relative="1" as="geometry">
            <mxPoint x="639" y="550" as="sourcePoint" />
            <mxPoint x="639" y="510" as="targetPoint" />
          </mxGeometry>
        </mxCell>
        <mxCell id="04KN_f6TEFB4FLLlbZ4H-42" value="" style="endArrow=classic;html=1;rounded=0;entryX=0;entryY=0;entryDx=0;entryDy=0;" edge="1" parent="1">
          <mxGeometry width="50" height="50" relative="1" as="geometry">
            <mxPoint x="312.43" y="620" as="sourcePoint" />
            <mxPoint x="580.0035931288011" y="729.2157287525345" as="targetPoint" />
          </mxGeometry>
        </mxCell>
        <mxCell id="04KN_f6TEFB4FLLlbZ4H-43" value="" style="endArrow=classic;html=1;rounded=0;entryX=0.971;entryY=0.336;entryDx=0;entryDy=0;entryPerimeter=0;" edge="1" parent="1">
          <mxGeometry width="50" height="50" relative="1" as="geometry">
            <mxPoint x="590" y="710" as="sourcePoint" />
            <mxPoint x="327.97" y="600" as="targetPoint" />
          </mxGeometry>
        </mxCell>
        <mxCell id="04KN_f6TEFB4FLLlbZ4H-44" value="" style="endArrow=classic;html=1;rounded=0;" edge="1" parent="1" target="04KN_f6TEFB4FLLlbZ4H-45">
          <mxGeometry width="50" height="50" relative="1" as="geometry">
            <mxPoint x="690" y="580" as="sourcePoint" />
            <mxPoint x="760" y="580" as="targetPoint" />
          </mxGeometry>
        </mxCell>
        <mxCell id="04KN_f6TEFB4FLLlbZ4H-45" value="" style="shape=cylinder3;whiteSpace=wrap;html=1;boundedLbl=1;backgroundOutline=1;size=15;" vertex="1" parent="1">
          <mxGeometry x="769.9999999999998" y="540" width="60" height="80" as="geometry" />
        </mxCell>
        <mxCell id="04KN_f6TEFB4FLLlbZ4H-48" value="" style="endArrow=classic;html=1;rounded=0;" edge="1" parent="1">
          <mxGeometry width="50" height="50" relative="1" as="geometry">
            <mxPoint x="600" y="490" as="sourcePoint" />
            <mxPoint x="580" y="460" as="targetPoint" />
          </mxGeometry>
        </mxCell>
        <mxCell id="04KN_f6TEFB4FLLlbZ4H-49" value="" style="endArrow=classic;html=1;rounded=0;" edge="1" parent="1" target="04KN_f6TEFB4FLLlbZ4H-50">
          <mxGeometry width="50" height="50" relative="1" as="geometry">
            <mxPoint x="640" y="490" as="sourcePoint" />
            <mxPoint x="650" y="420" as="targetPoint" />
          </mxGeometry>
        </mxCell>
        <mxCell id="04KN_f6TEFB4FLLlbZ4H-50" value="like" style="ellipse;whiteSpace=wrap;html=1;" vertex="1" parent="1">
          <mxGeometry x="620" y="360" width="70" height="50" as="geometry" />
        </mxCell>
        <mxCell id="04KN_f6TEFB4FLLlbZ4H-51" value="comment" style="ellipse;whiteSpace=wrap;html=1;" vertex="1" parent="1">
          <mxGeometry x="550" y="410" width="60" height="50" as="geometry" />
        </mxCell>
        <mxCell id="04KN_f6TEFB4FLLlbZ4H-53" value="" style="html=1;whiteSpace=wrap;aspect=fixed;shape=isoRectangle;" vertex="1" parent="1">
          <mxGeometry x="223.34" y="390" width="150" height="90" as="geometry" />
        </mxCell>
        <mxCell id="04KN_f6TEFB4FLLlbZ4H-54" value="cdn/caching" style="html=1;whiteSpace=wrap;aspect=fixed;shape=isoRectangle;" vertex="1" parent="1">
          <mxGeometry x="240" y="400" width="116.67" height="70" as="geometry" />
        </mxCell>
        <mxCell id="04KN_f6TEFB4FLLlbZ4H-55" value="" style="endArrow=classic;html=1;rounded=0;entryX=-0.01;entryY=0.333;entryDx=0;entryDy=0;entryPerimeter=0;" edge="1" parent="1" target="04KN_f6TEFB4FLLlbZ4H-50">
          <mxGeometry width="50" height="50" relative="1" as="geometry">
            <mxPoint x="320" y="400" as="sourcePoint" />
            <mxPoint x="370" y="350" as="targetPoint" />
          </mxGeometry>
        </mxCell>
        <mxCell id="04KN_f6TEFB4FLLlbZ4H-56" value="" style="endArrow=classic;html=1;rounded=0;entryX=0;entryY=0.5;entryDx=0;entryDy=0;" edge="1" parent="1" target="04KN_f6TEFB4FLLlbZ4H-51">
          <mxGeometry width="50" height="50" relative="1" as="geometry">
            <mxPoint x="375" y="436" as="sourcePoint" />
            <mxPoint x="425" y="386" as="targetPoint" />
          </mxGeometry>
        </mxCell>
        <mxCell id="04KN_f6TEFB4FLLlbZ4H-58" value="" style="endArrow=none;html=1;rounded=0;entryX=0.516;entryY=1.007;entryDx=0;entryDy=0;entryPerimeter=0;" edge="1" parent="1" source="04KN_f6TEFB4FLLlbZ4H-32">
          <mxGeometry width="50" height="50" relative="1" as="geometry">
            <mxPoint x="302.03" y="572" as="sourcePoint" />
            <mxPoint x="298.74" y="480.63" as="targetPoint" />
          </mxGeometry>
        </mxCell>
        <mxCell id="04KN_f6TEFB4FLLlbZ4H-59" value="" style="endArrow=classic;html=1;rounded=0;exitX=0.052;exitY=0.656;exitDx=0;exitDy=0;exitPerimeter=0;entryX=1.03;entryY=0.244;entryDx=0;entryDy=0;entryPerimeter=0;" edge="1" parent="1">
          <mxGeometry width="50" height="50" relative="1" as="geometry">
            <mxPoint x="595.6" y="598.5799999999999" as="sourcePoint" />
            <mxPoint x="332.5000000000001" y="591.4200000000001" as="targetPoint" />
          </mxGeometry>
        </mxCell>
        <mxCell id="04KN_f6TEFB4FLLlbZ4H-60" value="" style="endArrow=classic;html=1;rounded=0;entryX=0;entryY=0.5;entryDx=0;entryDy=0;" edge="1" parent="1" target="04KN_f6TEFB4FLLlbZ4H-34">
          <mxGeometry width="50" height="50" relative="1" as="geometry">
            <mxPoint x="320" y="575" as="sourcePoint" />
            <mxPoint x="370" y="525" as="targetPoint" />
          </mxGeometry>
        </mxCell>
      </root>
    </mxGraphModel>
  </diagram>
</mxfile>
